<svg xmlns="http://www.w3.org/2000/svg" xmlns:xlink="http://www.w3.org/1999/xlink" viewBox="0,0,256,256" width="48px" height="48px" fill-rule="nonzero"><g fill="#00adb5" fill-rule="nonzero" stroke="none" stroke-width="1" stroke-linecap="butt" stroke-linejoin="miter" stroke-miterlimit="10" stroke-dasharray="" stroke-dashoffset="0" font-family="none" font-weight="none" font-size="none" text-anchor="none" style="mix-blend-mode: normal"><g transform="scale(10.66667,10.66667)"><path d="M8.01758,1.01563c-0.74154,-0.05654 -1.47753,0.06942 -2.12305,0.44336c-0.86069,0.49858 -1.42187,1.35504 -1.71094,2.32031c-0.28907,0.96527 -0.33997,2.06559 -0.2168,3.26367c0.01415,0.13762 0.03778,0.28164 0.05664,0.42188c-0.07041,0.03052 -0.14584,0.05848 -0.21484,0.08984c-1.08252,0.49206 -1.99538,1.08716 -2.67578,1.81836c-0.6804,0.7312 -1.13281,1.63936 -1.13281,2.62695c0,0.9876 0.45242,1.89575 1.13281,2.62695c0.6804,0.7312 1.59326,1.3263 2.67578,1.81836c0.069,0.03137 0.14443,0.05932 0.21484,0.08984c-0.01887,0.14023 -0.04249,0.28426 -0.05664,0.42188c-0.12324,1.19808 -0.07222,2.29838 0.2168,3.26367c0.28902,0.96529 0.84832,1.82168 1.70898,2.32031c0.86066,0.49863 1.88211,0.55753 2.86328,0.32813c0.98117,-0.2294 1.96139,-0.73076 2.93945,-1.43359c0.10094,-0.07253 0.20185,-0.15748 0.30274,-0.23437c0.10159,0.07747 0.20304,0.16133 0.30469,0.23438c0.97802,0.70288 1.9583,1.20609 2.93945,1.43555c0.98115,0.22945 2.00259,0.16851 2.86328,-0.33008c0.86069,-0.49858 1.42187,-1.35504 1.71094,-2.32031c0.28907,-0.96527 0.33997,-2.06559 0.2168,-3.26367c-0.01419,-0.13799 -0.03966,-0.28125 -0.05859,-0.42187c0.07097,-0.03075 0.14726,-0.05823 0.2168,-0.08984c1.08252,-0.49206 1.99538,-1.08716 2.67578,-1.81836c0.6804,-0.7312 1.13281,-1.63935 1.13281,-2.62695c0,-0.9876 -0.45242,-1.89575 -1.13281,-2.62695c-0.6804,-0.7312 -1.59326,-1.3263 -2.67578,-1.81836c-0.069,-0.03137 -0.14443,-0.05932 -0.21484,-0.08984c0.01887,-0.14023 0.04249,-0.28426 0.05664,-0.42187c0.12324,-1.19808 0.07222,-2.29838 -0.2168,-3.26367c-0.28902,-0.96529 -0.84832,-1.82168 -1.70898,-2.32031c-0.86066,-0.49863 -1.88211,-0.55753 -2.86328,-0.32812c-0.98117,0.2294 -1.96139,0.73076 -2.93945,1.43359c-0.10135,0.07283 -0.2034,0.15715 -0.30469,0.23438c-0.10105,-0.07703 -0.20163,-0.16171 -0.30273,-0.23437c-0.97802,-0.70288 -1.9583,-1.20414 -2.93945,-1.43359c-0.24529,-0.05736 -0.49305,-0.09639 -0.74023,-0.11523zM7.49219,3.00586c0.2302,-0.02159 0.49505,-0.00106 0.80859,0.07227c0.60983,0.14262 1.36378,0.50258 2.16211,1.06641c-0.62794,0.62094 -1.24362,1.31527 -1.83594,2.08398c-0.94562,0.13156 -1.83808,0.32256 -2.67383,0.55859c-0.09617,-0.98603 -0.03308,-1.82745 0.14844,-2.43359c0.18475,-0.61693 0.45419,-0.96668 0.79492,-1.16406c0.17036,-0.09869 0.36551,-0.162 0.5957,-0.18359zM16.13477,3.00586c0.40339,-0.03544 0.71321,0.03555 0.96875,0.18359c0.34072,0.1974 0.61216,0.54712 0.79688,1.16406c0.18149,0.60615 0.24465,1.44757 0.14844,2.43359c-0.83626,-0.23628 -1.72948,-0.42694 -2.67578,-0.55859c-0.59209,-0.76849 -1.20629,-1.46317 -1.83399,-2.08398c0.79785,-0.56322 1.55067,-0.9239 2.16016,-1.06641c0.15677,-0.03665 0.30108,-0.06045 0.43555,-0.07227zM12,5.45313c0.1786,0.17335 0.35657,0.36894 0.53516,0.55859c-0.1787,-0.0037 -0.35446,-0.01172 -0.53516,-0.01172c-0.1807,0 -0.35646,0.00802 -0.53516,0.01172c0.1786,-0.18964 0.35655,-0.38526 0.53516,-0.55859zM12,8c0.78801,0 1.54877,0.04813 2.28516,0.12305c0.4157,0.58237 0.81885,1.20276 1.19922,1.85938c0.391,0.67497 0.73276,1.34955 1.03711,2.01758c-0.30438,0.66801 -0.64607,1.34458 -1.03711,2.01953c-0.3804,0.65659 -0.78349,1.27508 -1.19922,1.85742c-0.73639,0.07492 -1.49715,0.12305 -2.28516,0.12305c-0.78801,0 -1.54877,-0.04813 -2.28516,-0.12305c-0.4157,-0.58237 -0.81885,-1.20081 -1.19922,-1.85742c-0.391,-0.67497 -0.73276,-1.3515 -1.03711,-2.01953c0.30438,-0.66801 0.64607,-1.34458 1.03711,-2.01953c0.3804,-0.65659 0.78349,-1.27508 1.19922,-1.85742c0.73639,-0.07492 1.49715,-0.12305 2.28516,-0.12305zM7.01758,8.5957c-0.07721,0.12824 -0.15671,0.25213 -0.23242,0.38281c-0.0902,0.15568 -0.17169,0.31101 -0.25781,0.4668c-0.06841,-0.22729 -0.14262,-0.45722 -0.19922,-0.67773c0.21778,-0.06377 0.45937,-0.11509 0.68945,-0.17187zM16.98242,8.59766c0.22992,0.05676 0.47181,0.1062 0.68945,0.16992c-0.05662,0.22052 -0.1308,0.45045 -0.19922,0.67773c-0.086,-0.15557 -0.16775,-0.31133 -0.25781,-0.4668c-0.07559,-0.13049 -0.15534,-0.2528 -0.23242,-0.38086zM12,9c-1.654,0 -3,1.346 -3,3c0,1.654 1.346,3 3,3c1.654,0 3,-1.346 3,-3c0,-1.654 -1.346,-3 -3,-3zM4.43359,9.47461c0.21989,0.82032 0.50312,1.66383 0.85742,2.52344c-0.35485,0.86035 -0.63915,1.70436 -0.85937,2.52539c-0.80513,-0.38958 -1.43739,-0.8295 -1.83594,-1.25781c-0.43286,-0.46518 -0.5957,-0.87251 -0.5957,-1.26562c0,-0.39311 0.16284,-0.80044 0.5957,-1.26562c0.39895,-0.42873 1.0316,-0.86991 1.83789,-1.25977zM19.56836,9.47656c0.80513,0.38958 1.43739,0.8295 1.83594,1.25781c0.43286,0.46518 0.5957,0.87251 0.5957,1.26563c0,0.39311 -0.16284,0.80044 -0.5957,1.26563c-0.39882,0.42859 -1.03198,0.86805 -1.83789,1.25781c-0.22,-0.82013 -0.5031,-1.66408 -0.85742,-2.52344c0.35454,-0.85979 0.63929,-1.70292 0.85938,-2.52344zM6.52734,14.55469c0.08612,0.15579 0.16762,0.31111 0.25781,0.4668c0.07542,0.1302 0.15551,0.25309 0.23242,0.38086c-0.22992,-0.05675 -0.47182,-0.1062 -0.68945,-0.16992c0.05661,-0.22051 0.1308,-0.45045 0.19922,-0.67773zM17.47266,14.55469c0.06835,0.22707 0.14265,0.45742 0.19922,0.67773c-0.21778,0.06377 -0.45937,0.11509 -0.68945,0.17188c0.07721,-0.12824 0.15671,-0.25213 0.23242,-0.38281c0.0902,-0.15568 0.17169,-0.31101 0.25781,-0.4668zM5.95117,17.21289c0.83626,0.23628 1.72948,0.42694 2.67578,0.55859c0.59197,0.76835 1.20642,1.46325 1.83398,2.08398c-0.79785,0.56322 -1.55067,0.9239 -2.16016,1.06641c-0.62709,0.14662 -1.06358,0.08607 -1.4043,-0.11133c-0.34072,-0.1974 -0.61216,-0.54712 -0.79687,-1.16406c-0.18149,-0.60615 -0.24465,-1.44757 -0.14844,-2.43359zM18.04883,17.21289c0.09616,0.98603 0.03308,1.8294 -0.14844,2.43555c-0.18475,0.61693 -0.45614,0.96473 -0.79687,1.16211c-0.34073,0.19738 -0.77722,0.25798 -1.4043,0.11133c-0.60986,-0.14262 -1.36374,-0.50254 -2.16211,-1.06641c0.62794,-0.62094 1.24362,-1.31527 1.83594,-2.08398c0.9463,-0.13166 1.83952,-0.32232 2.67578,-0.55859zM11.46484,17.98828c0.1787,0.0037 0.35446,0.01172 0.53516,0.01172c0.1807,0 0.35646,-0.00802 0.53516,-0.01172c-0.1786,0.18964 -0.35655,0.38526 -0.53516,0.55859c-0.1786,-0.17335 -0.35657,-0.36894 -0.53516,-0.55859z"></path></g></g></svg>